<?xml version="1.0" encoding="UTF-8" standalone="no"?>
<!DOCTYPE svg PUBLIC "-//W3C//DTD SVG 1.1//EN"
 "http://www.w3.org/Graphics/SVG/1.1/DTD/svg11.dtd">
<!-- Generated by graphviz version 2.26.3 (20100126.1600)
 -->
<!-- Title: G Pages: 1 -->
<svg width="524pt" height="60pt"
 viewBox="0.00 0.00 524.00 60.00" xmlns="http://www.w3.org/2000/svg" xmlns:xlink="http://www.w3.org/1999/xlink">
<g id="graph1" class="graph" transform="scale(1 1) rotate(0) translate(4 56)">
<title>G</title>
<polygon fill="white" stroke="white" points="-4,5 -4,-56 521,-56 521,5 -4,5"/>
<!-- n49 -->
<g id="node1" class="node"><title>n49</title>
<a xlink:href="/browse/list_resource?r=http://purl.org/vocabularies/amalgame%23LoadedAlignment" xlink:title="Loaded Alignment Graph" target="_top">
<polygon fill="#ff85fd" stroke="black" points="506.876,-18.5442 506.876,-33.4558 437.24,-44 338.76,-44 269.124,-33.4558 269.124,-18.5442 338.76,-8 437.24,-8 506.876,-18.5442"/>
<polygon fill="none" stroke="black" points="510.861,-15.1022 510.861,-36.8978 437.539,-48 338.461,-48 265.139,-36.8978 265.139,-15.1022 338.461,-4 437.539,-4 510.861,-15.1022"/>
<polygon fill="none" stroke="black" points="514.845,-11.6603 514.845,-40.3397 437.838,-52 338.162,-52 261.155,-40.3397 261.155,-11.6603 338.162,-7.10543e-15 437.838,-0 514.845,-11.6603"/>
<text text-anchor="middle" x="388" y="-21.8" font-family="Times,serif" font-size="14.00">Loaded Alignment Graph</text>

</a>
</g>
<!-- n50 -->
<g id="node3" class="node"><title>n50</title>
<a xlink:href="/browse/list_resource?r=http://purl.org/vocabularies/amalgame%23Alignment" xlink:title="Alignment Graph" target="_top">
<ellipse fill="none" stroke="black" cx="79" cy="-26" rx="78.8872" ry="18"/>
<text text-anchor="middle" x="79" y="-21.8" font-family="Times,serif" font-size="14.00">Alignment Graph</text>
</a>
</g>
<!-- n49&#45;&gt;n50 -->
<g id="edge2" class="edge"><title>n49&#45;&gt;n50</title>
<a xlink:href="/browse/list_resource?r=http://www.w3.org/2000/01/rdf-schema%23subClassOf" xlink:title="subClassOf" target="_top">
<path fill="none" stroke="black" d="M260.534,-26C229.602,-26 197.178,-26 168.431,-26"/>

<polygon fill="black" stroke="black" points="168.425,-22.5001 158.425,-26 168.425,-29.5001 168.425,-22.5001"/>
</a>
<a xlink:href="/browse/list_resource?r=http://www.w3.org/2000/01/rdf-schema%23subClassOf" xlink:title="subClassOf" target="_top">
<text text-anchor="middle" x="209" y="-30.2" font-family="Times,serif" font-size="14.00">subClassOf</text>
</a>
</g>
</g>
</svg>

